<?xml version="1.0" encoding="UTF-8" standalone="no"?>
<!-- Created with Inkscape (http://www.inkscape.org/) -->

<svg
   width="210mm"
   height="297mm"
   viewBox="0 0 210 297"
   version="1.1"
   id="svg1"
   xmlns="http://www.w3.org/2000/svg"
   xmlns:svg="http://www.w3.org/2000/svg">
  <defs
     id="defs1" />
  <g
     id="layer1">
    <path
       d="m 150.8596,156.7715 c 0.24123,6.8037 -3.65741,13.33555 -9.55919,16.64275 -9.82474,5.69653 -21.53958,6.30616 -32.62002,6.7539 -9.651974,0.14715 -20.010215,0.28316 -28.622724,-4.7031 -5.19794,-2.92772 -7.786139,-9.08986 -7.130317,-14.89736 0.427629,-4.3678 1.031809,-9.33949 4.332328,-12.5432 3.048936,-2.58794 7.582703,0.76438 6.071962,4.50956 -0.800075,3.78773 -2.042864,8.59003 1.274345,11.58134 4.559044,3.54118 10.725282,3.55959 16.232606,3.92477 12.36181,0.175 25.19693,0.36045 36.72043,-4.74231 2.16732,-0.46708 5.85411,-4.68516 4.28308,-5.05035 -5.00501,4.36581 -14.17793,3.73047 -17.35031,-2.5289 -2.86294,-5.61902 -0.48855,-12.35533 2.52668,-17.40723 2.28397,-4.14523 7.10926,-7.2036 11.90574,-5.76453 6.14567,1.69501 8.95113,8.2437 10.57783,13.83894 0.93272,3.37708 1.35936,6.88498 1.35756,10.38572 z m -10.54195,-8.73329 c 0.1418,-3.53076 -4.19941,-7.25975 -7.41232,-4.76713 -2.87187,2.00982 -2.43634,7.92924 1.6595,7.95491 2.19914,0.093 5.78784,-0.21715 5.75282,-3.18778 z M 138.664,119.25453 c 0.29733,4.5879 -5.49542,7.64921 -9.17576,4.98353 -4.07569,-2.47167 -3.14076,-9.46373 1.53333,-10.63481 3.67103,-1.20702 7.80519,1.73553 7.64243,5.65128 z"
       id="text1"
       style="font-weight:bold;font-size:105.833px;font-family:'B Koodak';-inkscape-font-specification:'B Koodak Bold';stroke-width:0.264583"
       aria-label="ف" />
  </g>
</svg>
