<?xml version="1.0" encoding="UTF-8" standalone="no"?>
<!-- Created with Inkscape (http://www.inkscape.org/) -->

<svg
   width="210mm"
   height="297mm"
   viewBox="0 0 210 297"
   version="1.1"
   id="svg1"
   xmlns="http://www.w3.org/2000/svg"
   xmlns:svg="http://www.w3.org/2000/svg">
  <defs
     id="defs1" />
  <g
     id="layer1">
    <path
       d="m 170.79274,181.38698 c -10.43861,0 -20.87721,0 -31.31582,0 0,-4.01352 0,-8.02705 0,-12.04057 10.43861,0 20.87721,0 31.31582,0 0,4.01352 0,8.02705 0,12.04057 z m -28.3186,0 c -8.70732,0.26629 -17.8754,-0.84559 -25.2713,-5.77967 -3.22068,-0.72484 -7.06429,3.77429 -10.9693,4.14461 -4.10981,1.45573 -8.477812,1.75877 -12.800176,1.63506 0,-4.01352 0,-8.02705 0,-12.04057 4.927079,-0.0662 10.287756,0.34577 14.624386,-2.37711 -3.95311,-4.14087 -8.481684,-9.69526 -6.76313,-15.80001 2.38746,-5.65362 9.15008,-7.55798 14.71805,-8.3328 6.37605,-0.59795 13.79959,0.60537 18.10284,5.77482 3.55787,5.23212 0.177,12.0562 -4.22317,15.63732 -1.88539,1.5652 -5.32855,3.24731 -1.07284,3.99865 4.42061,1.36528 9.0891,1.05784 13.65464,1.09913 0,4.01352 0,8.02705 0,12.04057 z m -18.39675,-26.25154 c -1.73918,-3.92769 -8.03364,-2.97458 -11.44145,-1.69805 -2.44053,3.06218 3.49281,9.00921 6.40382,7.70622 2.01817,-1.5629 4.62086,-3.30075 5.03763,-6.00817 z m 0.93018,-26.04484 c 0.2934,4.8222 -6.12984,7.86653 -9.67881,4.59757 -3.84252,-2.85167 -2.20042,-9.69074 2.54425,-10.43053 3.54701,-0.82616 7.24987,2.19307 7.13456,5.83296 z m -28.576982,52.29638 c -10.438606,0 -20.877213,0 -31.315819,0 0,-4.01352 0,-8.02705 0,-12.04057 10.438606,0 20.877213,0 31.315819,0 0,4.01352 0,8.02705 0,12.04057 z"
       id="text1"
       style="font-weight:bold;font-size:105.833px;font-family:'B Koodak';-inkscape-font-specification:'B Koodak Bold';stroke-width:0.264583"
       aria-label="ـغـ" />
  </g>
</svg>
