<?xml version="1.0" encoding="UTF-8" standalone="no"?>
<!-- Created with Inkscape (http://www.inkscape.org/) -->

<svg
   width="210mm"
   height="297mm"
   viewBox="0 0 210 297"
   version="1.1"
   id="svg1"
   xmlns="http://www.w3.org/2000/svg"
   xmlns:svg="http://www.w3.org/2000/svg">
  <defs
     id="defs1" />
  <g
     id="layer1">
    <path
       d="m 147.58879,145.22905 c -10.00645,2.35675 -18.73042,7.9427 -27.78468,12.54987 -7.26343,3.53807 -15.52961,3.39261 -23.426505,3.36643 0,-4.01353 0,-8.02705 0,-12.04058 7.830345,-0.0224 16.008915,0.50078 23.250945,-3.05713 4.02376,-1.68099 8.03356,-3.39513 12.04395,-5.10772 -5.49655,-1.58676 -10.94268,-3.5879 -16.63976,-4.28913 -3.44218,0.38522 -6.29642,4.42387 -9.95596,2.66153 -2.88802,-1.76712 -2.19146,-6.13708 -0.39544,-8.47753 2.93104,-3.92642 7.90224,-6.94942 12.94006,-5.64881 8.92623,1.6133 17.14546,5.86251 26.12775,7.28817 3.06556,0.49616 7.38526,0.45511 8.27088,4.23801 1.07937,3.23866 -0.20189,7.5272 -3.85553,8.35419 z m -48.213965,15.9163 c -10.438606,0 -20.877213,0 -31.315819,0 0,-4.01353 0,-8.02705 0,-12.04058 10.438606,0 20.877213,0 31.315819,0 0,4.01353 0,8.02705 0,12.04058 z"
       id="text1"
       style="font-weight:bold;font-size:105.833px;font-family:'B Koodak';-inkscape-font-specification:'B Koodak Bold';stroke-width:0.264583"
       aria-label="حـ" />
  </g>
</svg>
