<?xml version="1.0" encoding="UTF-8" standalone="no"?>
<!-- Created with Inkscape (http://www.inkscape.org/) -->

<svg
   width="210mm"
   height="297mm"
   viewBox="0 0 210 297"
   version="1.1"
   id="svg1"
   xmlns="http://www.w3.org/2000/svg"
   xmlns:svg="http://www.w3.org/2000/svg">
  <defs
     id="defs1" />
  <g
     id="layer1">
    <path
       d="m 133.45181,144.35817 c 0.13217,9.02654 -4.17839,17.63505 -10.50482,23.89947 -5.17958,5.23823 -11.60776,9.25365 -18.56309,11.65865 -3.04523,0.9698 -6.971946,-1.17277 -6.847102,-4.60404 -0.126473,-2.89208 2.607282,-4.62538 5.000282,-5.4959 7.0118,-3.42781 13.70117,-8.04757 18.32429,-14.43095 0.69911,-1.11861 2.373,-3.60158 1.94775,-4.16539 -4.03641,1.59895 -8.94096,1.46666 -12.71176,-0.78665 -4.31433,-2.67098 -5.49782,-8.27248 -4.79353,-12.99027 0.76057,-4.99419 3.42841,-9.89874 7.67125,-12.74774 4.4946,-2.71813 10.66944,-1.36149 14.3221,2.18287 4.53676,4.54274 6.17146,11.23058 6.15463,17.47995 z m -10.23191,-3.41064 c -0.18468,-2.93939 -2.11764,-6.46637 -5.426,-6.45953 -3.01351,-0.19111 -5.41934,3.59022 -3.55355,6.1091 1.81767,1.87768 4.77988,1.36742 7.11012,1.02162 0.64732,-0.14554 1.28427,-0.35438 1.86943,-0.67119 z"
       id="text1"
       style="font-weight:bold;font-size:105.833px;font-family:'B Koodak';-inkscape-font-specification:'B Koodak Bold';stroke-width:0.264583"
       aria-label="و" />
  </g>
</svg>
